<?xml version="1.0" encoding="UTF-8"?>
<svg xmlns="http://www.w3.org/2000/svg" viewBox="0 0 1200 440" role="img" aria-labelledby="title description">
  <title id="title">Recent public shipping for marko1olo</title>
  <desc id="description">Latest commits from author-owned public repositories.</desc>
  <defs>
    <linearGradient id="background" x1="0" y1="0" x2="1" y2="1">
      <stop offset="0%" stop-color="#07111f"/>
      <stop offset="58%" stop-color="#0b1a2b"/>
      <stop offset="100%" stop-color="#171035"/>
    </linearGradient>
  </defs>
  <rect width="1200" height="310" rx="22" fill="url(#background)"/>
  <rect x="1" y="1" width="1198" height="308" rx="21" fill="none" stroke="#24425b"/>
  <path d="M0 242 C165 176 280 300 440 226 S786 162 950 225 S1114 268 1200 190" fill="none" stroke="#22d3ee" stroke-opacity="0.10" stroke-width="2"/>
  <g font-family="DejaVu Sans, sans-serif">
    <text x="48" y="54" fill="#a5f3fc" font-size="13" font-weight="700" letter-spacing="2.4">RECENT SHIPPING</text>
    <text x="48" y="83" fill="#f8fafc" font-size="23" font-weight="700">Latest public repository commits</text>
    <text x="48" y="108" fill="#94a3b8" font-size="12">Recent commits from owned repos and OSS contributions · 2026-08-22 03:57:39 UTC</text>
    <circle cx="48" cy="128" r="4" fill="#22d3ee"/>
  <text x="64" y="133" fill="#c4b5fd" font-size="13" font-weight="700">dental-crm</text>
  <text x="180" y="133" fill="#f8fafc" font-size="14">feat(insurance): implement DMS guarantee letter tracking, registry export,…</text>
  <text x="1152" y="133" fill="#94a3b8" font-size="12" text-anchor="end">2026-08-21</text>
  <line x1="48" y1="149" x2="1152" y2="149" stroke="#1e3a52" stroke-opacity="0.74"/>
  <circle cx="48" cy="166" r="4" fill="#22d3ee"/>
  <text x="64" y="171" fill="#c4b5fd" font-size="13" font-weight="700">dvachbot</text>
  <text x="180" y="171" fill="#f8fafc" font-size="14">fix(moderation): enforce 100% admin immunity across bans, mutes, shadow-mut…</text>
  <text x="1152" y="171" fill="#94a3b8" font-size="12" text-anchor="end">2026-08-21</text>
  <line x1="48" y1="187" x2="1152" y2="187" stroke="#1e3a52" stroke-opacity="0.74"/>
  <circle cx="48" cy="204" r="4" fill="#22d3ee"/>
  <text x="64" y="209" fill="#c4b5fd" font-size="13" font-weight="700">gigahrush</text>
  <text x="180" y="209" fill="#f8fafc" font-size="14">chore: add PRCampaign/ to .gitignore</text>
  <text x="1152" y="209" fill="#94a3b8" font-size="12" text-anchor="end">2026-08-17</text>
  <line x1="48" y1="225" x2="1152" y2="225" stroke="#1e3a52" stroke-opacity="0.74"/>
  <circle cx="48" cy="242" r="4" fill="#22d3ee"/>
  <text x="64" y="247" fill="#c4b5fd" font-size="13" font-weight="700">marko1olo</text>
  <text x="180" y="247" fill="#f8fafc" font-size="14">docs(readme): update open source contribution section with current PR count…</text>
  <text x="1152" y="247" fill="#94a3b8" font-size="12" text-anchor="end">2026-08-16</text>
  <line x1="48" y1="263" x2="1152" y2="263" stroke="#1e3a52" stroke-opacity="0.74"/>
  <circle cx="48" cy="280" r="4" fill="#22d3ee"/>
  <text x="64" y="285" fill="#c4b5fd" font-size="13" font-weight="700">plumbflow-ai</text>
  <text x="180" y="285" fill="#f8fafc" font-size="14">chore(pkg): standardize repository, author, license and test scripts</text>
  <text x="1152" y="285" fill="#94a3b8" font-size="12" text-anchor="end">2026-08-14</text>
  <line x1="48" y1="301" x2="1152" y2="301" stroke="#1e3a52" stroke-opacity="0.74"/>
  <circle cx="48" cy="318" r="4" fill="#22d3ee"/>
  <text x="64" y="323" fill="#c4b5fd" font-size="13" font-weight="700">grok-proxy-overseer</text>
  <text x="180" y="323" fill="#f8fafc" font-size="14">ci: add baseline CI validation workflow</text>
  <text x="1152" y="323" fill="#94a3b8" font-size="12" text-anchor="end">2026-08-14</text>
  <line x1="48" y1="339" x2="1152" y2="339" stroke="#1e3a52" stroke-opacity="0.74"/>
  <circle cx="48" cy="356" r="4" fill="#22d3ee"/>
  <text x="64" y="361" fill="#c4b5fd" font-size="13" font-weight="700">mamabroker</text>
  <text x="180" y="361" fill="#f8fafc" font-size="14">ci: add baseline CI validation workflow</text>
  <text x="1152" y="361" fill="#94a3b8" font-size="12" text-anchor="end">2026-08-14</text>
  <line x1="48" y1="377" x2="1152" y2="377" stroke="#1e3a52" stroke-opacity="0.74"/>
  <circle cx="48" cy="394" r="4" fill="#22d3ee"/>
  <text x="64" y="399" fill="#c4b5fd" font-size="13" font-weight="700">agentrouter-setup-guide</text>
  <text x="180" y="399" fill="#f8fafc" font-size="14">feat(ui): inject high-DPI inline SVG favicon into agentrouter-setup-guide f…</text>
  <text x="1152" y="399" fill="#94a3b8" font-size="12" text-anchor="end">2026-08-14</text>
  <line x1="48" y1="415" x2="1152" y2="415" stroke="#1e3a52" stroke-opacity="0.74"/>
  </g>
</svg>